<svg xmlns="http://www.w3.org/2000/svg" viewBox="0 0 2152.17 1238.26"><defs><style>.cls-1{fill:#4553a4;}.cls-2{fill:#4b506d;}.cls-3{fill:#eacc5c;}.cls-10,.cls-12,.cls-13,.cls-14,.cls-4,.cls-6,.cls-7,.cls-8,.cls-9{fill:none;stroke-miterlimit:10;}.cls-10,.cls-12,.cls-13,.cls-14,.cls-4,.cls-6{stroke:#fff;}.cls-4{stroke-width:3px;}.cls-5{fill:#4552a4;}.cls-6{stroke-width:4px;}.cls-7{stroke:#4b506d;}.cls-12,.cls-13,.cls-7,.cls-8{stroke-width:8px;}.cls-8{stroke:#51bd8a;}.cls-9{stroke:#eacc5c;stroke-width:17px;}.cls-13,.cls-9{stroke-linecap:round;}.cls-10{stroke-width:9px;}.cls-11{fill:#fff;}.cls-14{stroke-width:16px;}</style></defs><title>Asset 1</title><g id="Layer_2" data-name="Layer 2"><g id="Layer_3" data-name="Layer 3"><path class="cls-1" d="M472.79,460.84l466.9-6.19c99.53,70.26,163,359.87,163,359.87l48.54,24L1055.05,866S869.74,598,633.33,544.44C633.33,544.44,503.79,545.93,472.79,460.84Z"/><path class="cls-2" d="M1238.31,88.52c14,9.87,34.23,27.15,36.48,50a84.79,84.79,0,0,1,.75,21.13c-10.44-3.16-21.24-5.45-21.24-5.45s-.8-49-16-65.7Z"/><path class="cls-3" d="M512,529.74,390.64,564.17l-28.5-94.33H462.79A194.12,194.12,0,0,0,512,529.74Z"/><polyline class="cls-4" points="465.24 474.32 349.31 476.77 374.71 561.45 512.03 529.74"/><path class="cls-5" d="M1111.58,183.58s58.58-8.94,64.32-93.17c33.78,12.58,45.79-22.29,45.79-22.29s-48-21.92-92.15,16S1100.05,178.2,1111.58,183.58Z"/><path class="cls-6" d="M462.79,276.59c53.08-84.44,151.79-79.83,220.3-85.12,21.08-1.62,13-2.1,34-1.69"/><line class="cls-7" x1="829.37" y1="1085.81" x2="1307.09" y2="940.8"/><line class="cls-7" x1="1673.29" y1="760.39" x2="2151.01" y2="615.38"/><path class="cls-8" d="M357.27,631.31a290.13,290.13,0,0,1,171-55.43c161,0,291.51,130.51,291.51,291.5S689.3,1158.89,528.3,1158.89,236.8,1028.38,236.8,867.38"/><circle class="cls-2" cx="528.3" cy="867.38" r="53.32"/><path class="cls-8" d="M1420.07,903c-160,0-289.78-129.74-289.78-289.79S1260,323.39,1420.07,323.39s289.79,129.74,289.79,289.78"/><circle class="cls-7" cx="1420.07" cy="613.17" r="46"/><path class="cls-9" d="M1198.17,424.08c54.59,67.73,144.16,165.61,226.53,195.52"/><polyline class="cls-10" points="528.3 619.6 528.3 867.38 683.09 814.06"/><circle class="cls-11" cx="1225.32" cy="150.08" r="8.5"/><circle class="cls-11" cx="1272.58" cy="141.58" r="8.5"/><path class="cls-6" d="M1198.18,186.72s41.35,28.66,75.3,16.66"/><path class="cls-6" d="M913.52,230l228.57,105.63,11.35-17.94c28-43,108.83,24.79,103.32,42.69s-65.9-11.44-65.9-11.44,32.85,8.69,38.36,40.37-66.7,1.06-66.7,1.06,26.75,21,28.34,39.76-51.55,4.63-51.55,4.63"/><path class="cls-6" d="M1235.9,88.89c15.2,12.81,15.83,66.6,15.83,66.6l38.36,11.6-31.65,39.15s6.11,13.26,1.88,23.77-12.7,35.09-69.46,27.3l-48.77,10.84c13,38.76-11.8,66.8-41.46,16.06s0-97.49,0-97.49-27.46-54.83-107-88.86c-86.73-37.1-98.33,32.82-98.33,32.82"/><path class="cls-6" d="M1100.63,186.72S812.22,80,739,142.89c-57.34,49.32,2.62,127,117.28,192.06,43.35,24.61,94.52,47.43,150.13,66.25A999.17,999.17,0,0,0,1110,430.14"/><path class="cls-12" d="M1207,311s32.21-37.16,100.08-53.65"/><path class="cls-6" d="M1307.09,239.38s5,66.87,37.33,61.3c18.17.33,4-61.49,6.67-61.3s-3,61,23,57,18.7-56.75,21-57,9,51.68,25,47.34,21-78.07-22-90.2-73,4.86-73,4.86"/><path class="cls-13" d="M1709.86,254.14l3.82,12.75a22.64,22.64,0,0,0,30.55,14.34l7.4-3.15a22.64,22.64,0,0,1,28.7,9.92l2.93,5.33a22.65,22.65,0,0,0,31.47,8.52l6.68-4a22.64,22.64,0,0,1,28.58,4.41l3.88,4.39a22.63,22.63,0,0,0,30.56,3.08l18.22-13"/><path class="cls-4" d="M1281.08,265.39s7.05,18.72,20.47,14.35,7.4-24.62,7.4-24.62"/><path class="cls-6" d="M1106.69,196.52c41.19,6.24,74.53-54.69,75.51-94.86,45.71,9.3,59.91-48.79,53.63-76.7"/><path class="cls-1" d="M532.77,285.59C505,298.08,480.74,313.74,464,340c-55.31,87.06,4,205.09,102.78,217.69,47.75,6.09,229.27,19.53,229.27,19.53s-4.37,160.39-42.37,295.89c0,.06,131.56,27.23,131.56,27.23l-46.13-44.82L977.43,541.34h0a75.25,75.25,0,0,0-39.66-98.14L725,351.5"/><path class="cls-6" d="M542.77,276.59C515,289.08,490.74,304.74,474,331c-55.31,87.06,4,205.09,102.78,217.69,47.75,6.09,229.27,19.53,229.27,19.53s-4.37,160.39-42.37,295.89c0,.06,131.56,27.23,131.56,27.23l-46.13-44.82L987.43,532.34h0a75.25,75.25,0,0,0-39.66-98.14L735,342.5"/><polygon class="cls-13" points="1431.69 867.38 1421.69 710.71 1369.39 830.92 1431.69 867.38"/><circle class="cls-2" cx="159.67" cy="159.67" r="159.67"/><line class="cls-6" x1="1036.53" y1="334.95" x2="1006.45" y2="401.2"/><line class="cls-14" x1="492.14" y1="1231.17" x2="125.33" y2="1039.65"/><path class="cls-13" d="M252.13,153l5.63,5.6a13.5,13.5,0,0,0,20.09-1.15l3-3.75a13.49,13.49,0,0,1,17.87-2.94l3.05,2a13.5,13.5,0,0,0,18.92-4.47l2.37-4a13.49,13.49,0,0,1,16.24-5.79l3.28,1.19a13.49,13.49,0,0,0,16.9-7.06l5.88-12"/><line class="cls-6" x1="1045.05" y1="875.03" x2="1141.23" y2="847.52"/><polyline class="cls-6" points="1099.57 814.06 1093.14 832.88 1113.42 823.47 1113.42 833.77"/><line class="cls-6" x1="752.88" y1="891.37" x2="881.32" y2="912.34"/></g></g></svg>