<svg xmlns="http://www.w3.org/2000/svg" viewBox="0 0 2032.18 1501.27"><defs><style>.cls-1{fill:#70365d;}.cls-2{fill:#fff;}.cls-10,.cls-11,.cls-3,.cls-4,.cls-5,.cls-7,.cls-8,.cls-9{fill:none;stroke-miterlimit:10;}.cls-3,.cls-4{stroke:#4b506d;}.cls-3,.cls-8{stroke-width:8px;}.cls-4,.cls-7,.cls-8{stroke-linecap:round;}.cls-4,.cls-9{stroke-width:16px;}.cls-10,.cls-5,.cls-7,.cls-8,.cls-9{stroke:#fff;}.cls-5{stroke-width:9px;}.cls-6{fill:#4b506d;}.cls-7{stroke-width:24px;}.cls-10{stroke-width:4px;}.cls-11{stroke:#eacc5c;stroke-width:12px;}.cls-12{fill:#eacc5c;}.cls-13{fill:#63214e;}</style></defs><title>Asset 2</title><g id="Layer_2" data-name="Layer 2"><g id="Layer_3" data-name="Layer 3"><path class="cls-1" d="M1330.49,466c7.7-2.58,47.64,5.62,69.32-23.53l-48.43-16.37c-6.42,5.62-12.79,11.3-18.94,17.22-3.19,3.07-11.57,14.49-15.35,13.79-3.62-.67-9.62-8.2-12.31-10.55q-21.78-19.11-43.14-38.71c-7.11-6.5-14.22-13-21.2-19.66-3.16-3-7.67-6.25-9.92-10.07l32,86.16,38.92,13.66Z"/><path class="cls-2" d="M1226.49,370.13c-4.87-14.42-58.11-54.59-58.11-54.59l-101.71-13s52.95,93.89,2.63,117.46c-14.75,6.91-25.46,11.78-33.19,15.21L837,356c-14-5.58-43.68,1.58-58.66,2.15-51.1,2-102.77.58-151.32,19-51.37,19.52-108.62,59.78-125.31,114.71,0,0,110.09-49.66,197.9-13.93s168.48-22.7,272.1,64.12c5.21-4.13,13.08-4.82,20.58-4.85l35.6,2.9,120-2.24,55.47-27.13s47.79-22.18,60.91-52.88C1274.17,434.78,1231.37,384.54,1226.49,370.13Z"/><path class="cls-3" d="M517.75,620.5l-54.9,1.16a46.43,46.43,0,0,0-43.49,59.76h0a29,29,0,0,0,34.49,19.84L559.8,675.89"/><line class="cls-3" x1="147.17" y1="1497.47" x2="2030.92" y2="875.41"/><path class="cls-4" d="M871.35,1037.55c-12.2,149.78-137.62,267.52-290.53,267.52-161,0-291.51-130.51-291.51-291.5"/><path class="cls-4" d="M409.78,777.49a290.23,290.23,0,0,1,171-55.42c104.26,0,195.74,54.74,247.26,137"/><path class="cls-5" d="M837.7,1026.88c-10.65,140.73-135.45,252.15-276.18,241.5"/><path class="cls-5" d="M363.14,1147.45A254.35,254.35,0,0,1,326,994.28c10.66-140.73,133.38-246.17,274.1-235.52,99.73,7.56,199.59,76.06,224.43,172"/><circle class="cls-6" cx="580.82" cy="1013.57" r="53.32"/><path class="cls-4" d="M1472.59,1049.14c-160,0-289.79-129.74-289.79-289.78s129.75-289.79,289.79-289.79,289.78,129.75,289.78,289.79"/><path class="cls-3" d="M1247.69,846.23C1197.93,719.86,1260,577.08,1386.4,527.32S1655.56,539.66,1705.32,666,1693,935.19,1566.6,985"/><circle class="cls-6" cx="1472.59" cy="759.36" r="46"/><path class="cls-7" d="M1264.63,587.28c54.59,67.73,130.22,148.6,212.58,178.51"/><polyline class="cls-5" points="580.01 813.68 580.01 1013.57 704.89 970.56"/><path class="cls-8" d="M1529.69,305.76l3.82,12.75a22.65,22.65,0,0,0,30.56,14.34l7.39-3.15a22.66,22.66,0,0,1,28.71,9.92l2.93,5.33a22.64,22.64,0,0,0,31.46,8.52l6.68-4a22.63,22.63,0,0,1,28.58,4.42l3.88,4.38a22.64,22.64,0,0,0,30.57,3.08l18.21-13"/><polygon class="cls-8" points="1484.2 1013.57 1474.21 856.89 1421.9 977.11 1484.2 1013.57"/><circle class="cls-6" cx="212.18" cy="305.86" r="159.67"/><line class="cls-9" x1="370.52" y1="1482.84" x2="3.7" y2="1291.32"/><path class="cls-8" d="M479.19,264.18l-7.57-9.26a20.34,20.34,0,0,0-30.29-1.35l-5.05,5.16a20.34,20.34,0,0,1-27.23,1.68L404.78,257a20.34,20.34,0,0,0-29,3.79l-4.16,5.62a20.33,20.33,0,0,1-25.22,6.2l-4.73-2.3a20.35,20.35,0,0,0-26.42,8l-10.64,17"/><polyline class="cls-10" points="1209.34 992.31 1120 1031.32 1210.76 1017.25"/><polyline class="cls-10" points="805.4 1037.55 933.83 1058.53 801.65 1049.14"/><path class="cls-1" d="M1042.9,450.17s40.82-8.77,54.72-49.06c14.56-37.21-2.39-67.34-15.37-83.34a92.69,92.69,0,0,0-12-12.53c-51.38-15.05-91.63-23.09-150.88-14.81-43.92,6.14-125.33-8.67-149.63,33.34-23.7,41,34.46,91,124.33,142.07,0,0,95.46,54.29,160.15,71.66,42.4,15.85,72.42,29.36,107.89,38,11.1,3,19.59-4,19.59-4s16.45-11.57,21.63-17c36.88.06,57.59-16.63,55.75-23-2.16-7.54-52.09-18.1-52.09-18.1l-47,33.13S1078.16,467.31,1042.9,450.17Z"/><path class="cls-8" d="M1440.88,79.15s-.49,19.59,7.86,24.91,16.49-5.73,16.49-5.73"/><path class="cls-1" d="M1298.19,237.39c-.26,2.13-18.31-10.11-30.89-18.85-2.82,26.94-22.3,45.4-45.15,55-.43-.9-.84-2.63-1.3-3.47-4.3-7.77-14.09-12.29-21.2-4.6s-1.4,21.62.54,30.36c1.49,6.76.29,7.32-4.14,12.13a106,106,0,0,1-10.36,9.66,56.3,56.3,0,0,1-14.2,8.71c-9.43,24-13,46.2-.1,71.07,16.81,32.36,40.24,27.43,31.37-10.94,6.65-3.49,13.54-10.26,19.29-13.88s10-4.45,15.52-7.34c15.74,4.59,31.14,11.65,46.91,3.92C1303,333.36,1310.91,277.28,1298.19,237.39Z"/><path class="cls-11" d="M904.32,527.94c67.51,29.1,118,81.92,117,185.42-3.28,82.32-46.11,161.22-91,226.41-14.35,20.86-29.55,41.39-42.6,63.1l19.29,35.45-69.37-11.43s-13.61-74.64-2.7-165.2c0,0,14.72-82.46-10.47-137.92,0,0-50.3,1.49-75.53.88-31.71-.75-64.42-1-95.24-8.61-44.85-11-87.26-28.18-116.85-65-26.13-32.51-40.54-74.44-39.42-116.17"/><path class="cls-11" d="M1003.06,823.51c41.88,33.38,83.09,100.93,90.25,161.44L1190,969.2l-47.58-23.69s15.08-72.16-2.44-157.13c-13-63-35.57-128.58-79.52-177.86-51.17-57.38-128.08-80-201.84-91.16-105.75-16.05-123.46,7.86-157.41-2-19.32-5.62-32.24-23.73-52.1-28.84-35.37-9.11-71.63,8.07-103.44,21.63"/><circle class="cls-12" cx="737.3" cy="261.26" r="10.13"/><path class="cls-13" d="M1098.11,402c-13.9,40.29-54.72,49.06-54.72,49.06l-94.16-51.23c11.57,1.07,23.29,2,34.92,2.06,9.41,0,18.89,1.72,28.44,1.73a142.46,142.46,0,0,0,51.56-9.61c13.47-5.23,18.59-20.55,20.51-33.65a112.4,112.4,0,0,0,.9-22c-.25-5.13.46-15.66-2.82-19.7C1095.72,334.62,1112.67,364.75,1098.11,402Z"/><path class="cls-12" d="M1298,252.12s3.76-52.69-26.13-65.28a55.94,55.94,0,0,0-.32-10.61,42,42,0,0,0-5.32-15.91,133.34,133.34,0,0,0-23.36-30.26c-28.66-28-77.43-48.34-117.75-39.76-11.77,2.5-21.54,8.87-34.23,6.18-18.14-3.85-30.25-20.6-37.92-36.32-15.56-31.95-44-51.61-78.26-57.25,0,0-66.51-13.55-125.93,17.84-56,29.59-78.15,88.3-112.69,137-5.75,8.12-11.94,16.92-19.76,23.22-9.41,7.58-21.73,10.33-30.55,18.8-5.3,5.08-9,12.39-7.93,19.66,1.54,10.39,12.45,17.3,22.93,17.93,19.23,1.15,76.21-25.51,87.35.95,1.88,4.47,1.64,9.5,2,14.33,3.42,46.21,72.3-25.89,85.57-7.65,9,12.34,34.42,22.51,58.1,26.4,37.88,6.22,46.06,11.09,66,16,32.1,7.92,113.62,28.35,137.28,39.82,16.93,8.2,34.88,3,49.62-7.19a108.51,108.51,0,0,0,10.73-8.62c5.26-4.74,5.82-4.8,3.8-10.94-2.61-8-9.11-22.29-3-29.65s18.11-4.42,21.8,3.45l1.58,3.38s50.62-24.49,46.28-56.49C1267.85,221.16,1290.45,232.22,1298,252.12Z"/></g></g></svg>